<svg xmlns="http://www.w3.org/2000/svg" width="900" height="600" viewBox="0 0 900 600" role="img" aria-label="Real-time gesture recognition">
  <!-- Editorial theme (matches home / pipeline-strip) -->
  <defs>
    <linearGradient id="bgGrad" x1="0%" y1="0%" x2="100%" y2="100%">
      <stop offset="0%" stop-color="#FBF9F4"/>
      <stop offset="50%" stop-color="#F4F1EA"/>
      <stop offset="100%" stop-color="#EDE8DD"/>
    </linearGradient>
    <filter id="softShadow" x="-20%" y="-20%" width="140%" height="140%">
      <feDropShadow dx="0" dy="8" stdDeviation="12" flood-color="#1B1A18" flood-opacity="0.08"/>
    </filter>
  </defs>

  <rect width="900" height="600" rx="32" fill="url(#bgGrad)" stroke="#D9D4C7" stroke-width="1"/>
  <circle cx="780" cy="110" r="90" fill="#1F8D87" opacity="0.08"/>
  <circle cx="130" cy="520" r="110" fill="#1B1A18" opacity="0.04"/>

  <g transform="translate(120,190) scale(1.05)">
    <circle cx="170" cy="70" r="44" fill="#E8C4B0"/>
    <path d="M135 55 C150 30, 190 25, 210 52 C215 68, 210 80, 205 88" fill="#1B1A18"/>
    <circle cx="154" cy="72" r="6" fill="#2a2925"/>
    <circle cx="186" cy="72" r="6" fill="#2a2925"/>
    <path d="M158 90 C170 102, 182 102, 194 90" fill="none" stroke="#B87A6A" stroke-width="6" stroke-linecap="round"/>
    <rect x="118" y="115" width="110" height="120" rx="24" fill="#1F8D87"/>
    <rect x="126" y="230" width="44" height="120" rx="18" fill="#3C3A35"/>
    <rect x="176" y="230" width="44" height="120" rx="18" fill="#3C3A35"/>
    <rect x="120" y="340" width="52" height="18" rx="9" fill="#1B1A18"/>
    <rect x="174" y="340" width="52" height="18" rx="9" fill="#1B1A18"/>
    <path d="M165 150 C210 120, 250 140, 250 190" fill="none" stroke="#176A66" stroke-width="22" stroke-linecap="round"/>
    <circle cx="252" cy="194" r="18" fill="#E8B09A"/>
  </g>

  <g transform="translate(500,165)" filter="url(#softShadow)">
    <rect width="340" height="230" rx="22" fill="#FBF9F4" stroke="#D9D4C7" stroke-width="1"/>
    <rect x="22" y="22" width="296" height="150" rx="16" fill="#1B1A18"/>
    <path d="M95 60 C110 40, 140 40, 155 60 C160 75, 160 92, 155 110 C150 128, 145 140, 140 150" fill="none" stroke="#1F8D87" stroke-width="10" stroke-linecap="round" opacity="0.95"/>
    <path d="M140 55 v95" stroke="#1F8D87" stroke-width="10" stroke-linecap="round" opacity="0.95"/>
    <path d="M115 85 h50" stroke="#1F8D87" stroke-width="10" stroke-linecap="round" opacity="0.95"/>
    <rect x="22" y="184" width="210" height="18" rx="9" fill="#D9D4C7" opacity="0.5"/>
    <rect x="22" y="208" width="170" height="14" rx="7" fill="#D9D4C7" opacity="0.35"/>
    <circle cx="292" cy="202" r="26" fill="#1F8D87"/>
    <text x="292" y="210" text-anchor="middle" font-family="'JetBrains Mono', ui-monospace, monospace" font-size="15" fill="#FBF9F4" font-weight="600">AI</text>
  </g>
</svg>
